<?xml version="1.0" encoding="UTF-8" standalone="no"?>
<svg width="200px" height="200px" viewBox="0 0 200 200" version="1.1" xmlns="http://www.w3.org/2000/svg" xmlns:xlink="http://www.w3.org/1999/xlink" xmlns:sketch="http://www.bohemiancoding.com/sketch/ns">
    <!-- Generator: Sketch 3.2.2 (9983) - http://www.bohemiancoding.com/sketch -->
    <title>logo</title>
    <desc>Created with Sketch.</desc>
    <defs></defs>
    <g id="Page-1" stroke="none" stroke-width="1" fill="none" fill-rule="evenodd" sketch:type="MSPage">
        <g id="Logo" sketch:type="MSLayerGroup">
            <rect id="Box" fill="#E74C3C" sketch:type="MSShapeGroup" x="0" y="0" width="200" height="200" rx="20"></rect>
            <path d="M117.15625,200 L81.71875,200 L81.71875,129.0625 C81.71875,128.124995 81.9999972,127.304691 82.5625,126.601562 C83.1250028,125.898434 84.0859307,125.289065 85.4453125,124.773437 C86.8046943,124.25781 88.6093637,123.859376 90.859375,123.578125 C93.1093863,123.296874 95.9687327,123.15625 99.4375,123.15625 C102.906267,123.15625 105.765614,123.296874 108.015625,123.578125 C110.265636,123.859376 112.070306,124.25781 113.429688,124.773437 C114.789069,125.289065 115.749997,125.898434 116.3125,126.601562 C116.875003,127.304691 117.15625,128.124995 117.15625,129.0625 L117.15625,200 Z" id="i" fill="#FFFFFF" sketch:type="MSShapeGroup"></path>
            <path d="M115.46875,101.078125 C112.562485,103.796889 107.171914,105.15625 99.296875,105.15625 C91.3280852,105.15625 85.9609513,103.843763 83.1953125,101.21875 C80.4296737,98.5937369 79.046875,93.8594092 79.046875,87.015625 C79.046875,79.8905894 80.4765482,74.9453263 83.3359375,72.1796875 C86.1953268,69.4140487 91.6093352,68.03125 99.578125,68.03125 C107.453164,68.03125 112.796861,69.3671741 115.609375,72.0390625 C118.421889,74.7109509 119.828125,79.4687158 119.828125,86.3125 C119.828125,93.4375356 118.375015,98.3593614 115.46875,101.078125 Z" id="i" fill="#FFFFFF" sketch:type="MSShapeGroup"></path>
        </g>
    </g>
</svg>