<?xml version="1.0" encoding="UTF-8" standalone="no"?>
<svg width="1560px" height="200px" viewBox="0 0 1560 200" version="1.1" xmlns="http://www.w3.org/2000/svg" xmlns:xlink="http://www.w3.org/1999/xlink" xmlns:sketch="http://www.bohemiancoding.com/sketch/ns">
    <!-- Generator: Sketch 3.2.2 (9983) - http://www.bohemiancoding.com/sketch -->
    <title>logotype</title>
    <desc>Created with Sketch.</desc>
    <defs></defs>
    <g id="Page-1" stroke="none" stroke-width="1" fill="none" fill-rule="evenodd" sketch:type="MSPage">
        <g id="Logo" sketch:type="MSLayerGroup">
            <rect id="Box" fill="#E74C3C" sketch:type="MSShapeGroup" x="0" y="0" width="200" height="200" rx="20"></rect>
            <path d="M117.15625,200 L81.71875,200 L81.71875,129.0625 C81.71875,128.124995 81.9999972,127.304691 82.5625,126.601562 C83.1250028,125.898434 84.0859307,125.289065 85.4453125,124.773437 C86.8046943,124.25781 88.6093637,123.859376 90.859375,123.578125 C93.1093863,123.296874 95.9687327,123.15625 99.4375,123.15625 C102.906267,123.15625 105.765614,123.296874 108.015625,123.578125 C110.265636,123.859376 112.070306,124.25781 113.429688,124.773437 C114.789069,125.289065 115.749997,125.898434 116.3125,126.601562 C116.875003,127.304691 117.15625,128.124995 117.15625,129.0625 L117.15625,200 Z" id="i" fill="#FFFFFF" sketch:type="MSShapeGroup"></path>
            <path d="M115.46875,101.078125 C112.562485,103.796889 107.171914,105.15625 99.296875,105.15625 C91.3280852,105.15625 85.9609513,103.843763 83.1953125,101.21875 C80.4296737,98.5937369 79.046875,93.8594092 79.046875,87.015625 C79.046875,79.8905894 80.4765482,74.9453263 83.3359375,72.1796875 C86.1953268,69.4140487 91.6093352,68.03125 99.578125,68.03125 C107.453164,68.03125 112.796861,69.3671741 115.609375,72.0390625 C118.421889,74.7109509 119.828125,79.4687158 119.828125,86.3125 C119.828125,93.4375356 118.375015,98.3593614 115.46875,101.078125 Z" id="i" fill="#FFFFFF" sketch:type="MSShapeGroup"></path>
        </g>
        <path d="M285.009766,195 L285.009766,57.1289062 L310.019531,57.1289062 L310.019531,195 L285.009766,195 Z M285.009766,32.1191406 L285.009766,7.109375 L310.019531,7.109375 L310.019531,32.1191406 L285.009766,32.1191406 Z M349.404297,195 L349.404297,7.109375 L411.865234,7.109375 C430.485119,7.109375 445.528914,9.18292197 456.99707,13.3300781 C468.465227,17.4772343 478.38863,24.5019036 486.767578,34.4042969 C500.055405,50.1465631 506.699219,70.8820328 506.699219,96.6113281 C506.699219,127.841953 498.447348,152.04744 481.943359,169.228516 C465.439371,186.409591 442.207181,195 412.246094,195 L349.404297,195 Z M376.064453,175.068359 L410.214844,175.068359 C434.589966,175.068359 451.855418,168.50918 462.011719,155.390625 C472.929742,141.425711 478.388672,122.679154 478.388672,99.1503906 C478.388672,77.0604364 473.014377,59.7103495 462.265625,47.0996094 C455.748665,39.3977479 447.962285,34.1292459 438.90625,31.2939453 C429.850215,28.4586447 416.224049,27.0410156 398.027344,27.0410156 L376.064453,27.0410156 L376.064453,175.068359 Z M635.966797,190.556641 C619.208901,195.634791 604.863341,198.173828 592.929688,198.173828 C572.617086,198.173828 556.049869,191.424221 543.227539,177.924805 C530.405209,164.425388 523.994141,146.927191 523.994141,125.429688 C523.994141,104.524635 529.643498,87.3861346 540.942383,74.0136719 C552.241267,60.6412092 566.69262,53.9550781 584.296875,53.9550781 C600.970135,53.9550781 613.855749,59.879498 622.954102,71.7285156 C632.052454,83.5775332 636.601562,100.419813 636.601562,122.255859 L636.474609,130 L549.511719,130 C553.15106,162.75407 569.189311,179.130859 597.626953,179.130859 C608.037161,179.130859 620.816982,176.337919 635.966797,170.751953 L635.966797,190.556641 Z M550.654297,111.210938 L611.464844,111.210938 C611.464844,85.566278 601.901137,72.7441406 582.773438,72.7441406 C563.561102,72.7441406 552.854829,85.566278 550.654297,111.210938 L550.654297,111.210938 Z M698.330078,195 L647.041016,57.1289062 L672.050781,57.1289062 L712.167969,164.404297 L754.443359,57.1289062 L777.802734,57.1289062 L723.339844,195 L698.330078,195 Z M885.0625,199.697266 C855.863135,199.697266 833.308022,191.128015 817.396484,173.989258 C801.484946,156.8505 793.529297,132.581537 793.529297,101.181641 C793.529297,69.8663799 801.633057,45.5762582 817.84082,28.3105469 C834.048584,11.0448355 856.878759,2.41210938 886.332031,2.41210938 C903.174563,2.41210938 922.894418,5.16273291 945.492188,10.6640625 L945.492188,35.6738281 C919.762892,26.7870649 899.916085,22.34375 885.951172,22.34375 C865.553934,22.34375 849.769587,29.2414675 838.597656,43.0371094 C827.425725,56.8327513 821.839844,76.2987024 821.839844,101.435547 C821.839844,125.38749 827.806581,144.282157 839.740234,158.120117 C851.673888,171.958077 867.966043,178.876953 888.617188,178.876953 C906.390714,178.876953 925.433492,173.418023 945.746094,162.5 L945.746094,185.351562 C927.210845,194.915412 906.983183,199.697266 885.0625,199.697266 L885.0625,199.697266 Z M1076.2832,190.556641 C1059.52531,195.634791 1045.17975,198.173828 1033.24609,198.173828 C1012.93349,198.173828 996.366275,191.424221 983.543945,177.924805 C970.721616,164.425388 964.310547,146.927191 964.310547,125.429688 C964.310547,104.524635 969.959904,87.3861346 981.258789,74.0136719 C992.557674,60.6412092 1007.00903,53.9550781 1024.61328,53.9550781 C1041.28654,53.9550781 1054.17216,59.879498 1063.27051,71.7285156 C1072.36886,83.5775332 1076.91797,100.419813 1076.91797,122.255859 L1076.79102,130 L989.828125,130 C993.467466,162.75407 1009.50572,179.130859 1037.94336,179.130859 C1048.35357,179.130859 1061.13339,176.337919 1076.2832,170.751953 L1076.2832,190.556641 Z M1051.78125,111.210938 C1051.78125,85.566278 1042.21754,72.7441406 1023.08984,72.7441406 C1003.87751,72.7441406 993.171235,85.566278 990.970703,111.210938 L1051.78125,111.210938 Z M1110.08203,195 L1110.08203,57.1289062 L1135.0918,57.1289062 L1135.0918,83.0273438 C1148.29499,63.7303723 1164.46019,54.0820312 1183.58789,54.0820312 C1195.52154,54.0820312 1205.04293,57.8694283 1212.15234,65.4443359 C1219.26175,73.0192436 1222.81641,83.1965507 1222.81641,95.9765625 L1222.81641,195 L1197.80664,195 L1197.80664,104.101562 C1197.80664,93.8606259 1196.30438,86.5608942 1193.2998,82.2021484 C1190.29523,77.8434027 1185.32295,75.6640625 1178.38281,75.6640625 C1163.06373,75.6640625 1148.63353,85.6932591 1135.0918,105.751953 L1135.0918,195 L1110.08203,195 Z M1302.82617,198.173828 C1290.1308,198.173828 1280.22855,194.534542 1273.11914,187.255859 C1266.00973,179.977177 1262.45508,169.863346 1262.45508,156.914062 L1262.45508,75.9179688 L1245.18945,75.9179688 L1245.18945,57.1289062 L1262.45508,57.1289062 L1262.45508,32.1191406 L1287.46484,29.7070312 L1287.46484,57.1289062 L1323.51953,57.1289062 L1323.51953,75.9179688 L1287.46484,75.9179688 L1287.46484,152.34375 C1287.46484,170.371184 1295.25122,179.384766 1310.82422,179.384766 C1314.12502,179.384766 1318.14516,178.834641 1322.88477,177.734375 L1322.88477,195 C1315.1829,197.115896 1308.49677,198.173828 1302.82617,198.173828 L1302.82617,198.173828 Z M1449.74023,190.556641 C1432.98234,195.634791 1418.63678,198.173828 1406.70312,198.173828 C1386.39052,198.173828 1369.82331,191.424221 1357.00098,177.924805 C1344.17865,164.425388 1337.76758,146.927191 1337.76758,125.429688 C1337.76758,104.524635 1343.41694,87.3861346 1354.71582,74.0136719 C1366.0147,60.6412092 1380.46606,53.9550781 1398.07031,53.9550781 C1414.74357,53.9550781 1427.62919,59.879498 1436.72754,71.7285156 C1445.82589,83.5775332 1450.375,100.419813 1450.375,122.255859 L1450.24805,130 L1363.28516,130 C1366.9245,162.75407 1382.96275,179.130859 1411.40039,179.130859 C1421.8106,179.130859 1434.59042,176.337919 1449.74023,170.751953 L1449.74023,190.556641 Z M1364.42773,111.210938 L1425.23828,111.210938 C1425.23828,85.566278 1415.67457,72.7441406 1396.54688,72.7441406 C1377.33454,72.7441406 1366.62827,85.566278 1364.42773,111.210938 L1364.42773,111.210938 Z M1483.53906,195 L1483.53906,57.1289062 L1508.54883,57.1289062 L1508.54883,83.0273438 C1518.45122,63.7303723 1532.8391,54.0820312 1551.71289,54.0820312 C1554.25197,54.0820312 1556.91795,54.2936177 1559.71094,54.7167969 L1559.71094,78.0761719 C1555.39451,76.6373626 1551.58595,75.9179688 1548.28516,75.9179688 C1532.45825,75.9179688 1519.21294,85.3124061 1508.54883,104.101562 L1508.54883,195 L1483.53906,195 Z" id="iDevCenter" fill="#000000" sketch:type="MSShapeGroup"></path>
    </g>
</svg>